<?xml version="1.0" standalone="no"?>
<!DOCTYPE svg PUBLIC "-//W3C//DTD SVG 20010904//EN"
 "http://www.w3.org/TR/2001/REC-SVG-20010904/DTD/svg10.dtd">
<svg version="1.0" xmlns="http://www.w3.org/2000/svg"
 width="1862.000000pt" height="1725.000000pt" viewBox="0 0 1862.000000 1725.000000"
 preserveAspectRatio="xMidYMid meet">
<metadata>
Created by potrace 1.16, written by Peter Selinger 2001-2019
</metadata>
<g transform="translate(0.000000,1725.000000) scale(0.100000,-0.100000)"
fill="#000000" stroke="none">
<path d="M12525 13570 c-99 -21 -265 -108 -317 -167 -34 -39 -735 -1066 -1958
-2868 -383 -564 -479 -706 -607 -895 -68 -102 -179 -266 -246 -365 -468 -690
-839 -1237 -989 -1460 -208 -307 -588 -868 -617 -909 l-20 -29 -833 829 c-993
988 -1153 1137 -1342 1250 -95 57 -178 84 -255 84 -172 0 -289 -88 -777 -581
-283 -287 -395 -412 -430 -481 -76 -151 -68 -355 21 -514 46 -82 80 -119 681
-734 855 -876 2046 -2053 2434 -2403 219 -198 314 -270 408 -306 218 -84 433
-79 629 14 206 97 270 168 660 735 239 347 313 457 631 927 178 263 557 822
842 1243 285 421 612 903 727 1073 114 169 262 387 329 485 247 364 932 1376
1294 1912 284 421 1034 1545 1130 1695 95 146 120 216 120 331 0 39 -7 93 -16
120 -57 168 -252 350 -704 654 -472 317 -640 393 -795 360z"/>
</g>
</svg>
